<mxfile host="Electron" modified="2025-03-21T23:26:30.554Z" agent="Mozilla/5.0 (Windows NT 10.0; Win64; x64) AppleWebKit/537.36 (KHTML, like Gecko) draw.io/21.6.8 Chrome/114.0.5735.289 Electron/25.5.0 Safari/537.36" etag="IoLV2ss8HhlXVXElavVJ" version="21.6.8" type="device">
  <diagram name="Page-1" id="kA2lP_8_a6c8l04shPjZ">
    <mxGraphModel dx="1658" dy="820" grid="1" gridSize="10" guides="1" tooltips="1" connect="1" arrows="1" fold="1" page="1" pageScale="1" pageWidth="850" pageHeight="1100" math="0" shadow="0">
      <root>
        <mxCell id="0" />
        <mxCell id="1" parent="0" />
        <mxCell id="VzfCmB4Gi5n6BVjje-Hj-1" value="EMAIL" style="shape=table;startSize=25;container=1;collapsible=0;childLayout=tableLayout;fixedRows=1;rowLines=1;fontStyle=1;align=center;resizeLast=1;" vertex="1" parent="1">
          <mxGeometry x="20" y="20" width="105" height="135" as="geometry" />
        </mxCell>
        <mxCell id="VzfCmB4Gi5n6BVjje-Hj-2" style="shape=tableRow;horizontal=0;startSize=0;swimlaneHead=0;swimlaneBody=0;fillColor=none;collapsible=0;dropTarget=0;points=[[0,0.5],[1,0.5]];portConstraint=eastwest;top=0;left=0;right=0;bottom=0;" vertex="1" parent="VzfCmB4Gi5n6BVjje-Hj-1">
          <mxGeometry y="25" width="105" height="22" as="geometry" />
        </mxCell>
        <mxCell id="VzfCmB4Gi5n6BVjje-Hj-3" value="Long" style="shape=partialRectangle;connectable=0;fillColor=none;top=0;left=0;bottom=0;right=0;align=left;spacingLeft=2;overflow=hidden;fontSize=11;" vertex="1" parent="VzfCmB4Gi5n6BVjje-Hj-2">
          <mxGeometry width="36" height="22" as="geometry">
            <mxRectangle width="36" height="22" as="alternateBounds" />
          </mxGeometry>
        </mxCell>
        <mxCell id="VzfCmB4Gi5n6BVjje-Hj-4" value="id" style="shape=partialRectangle;connectable=0;fillColor=none;top=0;left=0;bottom=0;right=0;align=left;spacingLeft=2;overflow=hidden;fontSize=11;" vertex="1" parent="VzfCmB4Gi5n6BVjje-Hj-2">
          <mxGeometry x="36" width="69" height="22" as="geometry">
            <mxRectangle width="69" height="22" as="alternateBounds" />
          </mxGeometry>
        </mxCell>
        <mxCell id="VzfCmB4Gi5n6BVjje-Hj-5" style="shape=tableRow;horizontal=0;startSize=0;swimlaneHead=0;swimlaneBody=0;fillColor=none;collapsible=0;dropTarget=0;points=[[0,0.5],[1,0.5]];portConstraint=eastwest;top=0;left=0;right=0;bottom=0;" vertex="1" parent="VzfCmB4Gi5n6BVjje-Hj-1">
          <mxGeometry y="47" width="105" height="22" as="geometry" />
        </mxCell>
        <mxCell id="VzfCmB4Gi5n6BVjje-Hj-6" value="String" style="shape=partialRectangle;connectable=0;fillColor=none;top=0;left=0;bottom=0;right=0;align=left;spacingLeft=2;overflow=hidden;fontSize=11;" vertex="1" parent="VzfCmB4Gi5n6BVjje-Hj-5">
          <mxGeometry width="36" height="22" as="geometry">
            <mxRectangle width="36" height="22" as="alternateBounds" />
          </mxGeometry>
        </mxCell>
        <mxCell id="VzfCmB4Gi5n6BVjje-Hj-7" value="to" style="shape=partialRectangle;connectable=0;fillColor=none;top=0;left=0;bottom=0;right=0;align=left;spacingLeft=2;overflow=hidden;fontSize=11;" vertex="1" parent="VzfCmB4Gi5n6BVjje-Hj-5">
          <mxGeometry x="36" width="69" height="22" as="geometry">
            <mxRectangle width="69" height="22" as="alternateBounds" />
          </mxGeometry>
        </mxCell>
        <mxCell id="VzfCmB4Gi5n6BVjje-Hj-8" style="shape=tableRow;horizontal=0;startSize=0;swimlaneHead=0;swimlaneBody=0;fillColor=none;collapsible=0;dropTarget=0;points=[[0,0.5],[1,0.5]];portConstraint=eastwest;top=0;left=0;right=0;bottom=0;" vertex="1" parent="VzfCmB4Gi5n6BVjje-Hj-1">
          <mxGeometry y="69" width="105" height="22" as="geometry" />
        </mxCell>
        <mxCell id="VzfCmB4Gi5n6BVjje-Hj-9" value="String" style="shape=partialRectangle;connectable=0;fillColor=none;top=0;left=0;bottom=0;right=0;align=left;spacingLeft=2;overflow=hidden;fontSize=11;" vertex="1" parent="VzfCmB4Gi5n6BVjje-Hj-8">
          <mxGeometry width="36" height="22" as="geometry">
            <mxRectangle width="36" height="22" as="alternateBounds" />
          </mxGeometry>
        </mxCell>
        <mxCell id="VzfCmB4Gi5n6BVjje-Hj-10" value="from" style="shape=partialRectangle;connectable=0;fillColor=none;top=0;left=0;bottom=0;right=0;align=left;spacingLeft=2;overflow=hidden;fontSize=11;" vertex="1" parent="VzfCmB4Gi5n6BVjje-Hj-8">
          <mxGeometry x="36" width="69" height="22" as="geometry">
            <mxRectangle width="69" height="22" as="alternateBounds" />
          </mxGeometry>
        </mxCell>
        <mxCell id="VzfCmB4Gi5n6BVjje-Hj-11" style="shape=tableRow;horizontal=0;startSize=0;swimlaneHead=0;swimlaneBody=0;fillColor=none;collapsible=0;dropTarget=0;points=[[0,0.5],[1,0.5]];portConstraint=eastwest;top=0;left=0;right=0;bottom=0;" vertex="1" parent="VzfCmB4Gi5n6BVjje-Hj-1">
          <mxGeometry y="91" width="105" height="22" as="geometry" />
        </mxCell>
        <mxCell id="VzfCmB4Gi5n6BVjje-Hj-12" value="String" style="shape=partialRectangle;connectable=0;fillColor=none;top=0;left=0;bottom=0;right=0;align=left;spacingLeft=2;overflow=hidden;fontSize=11;" vertex="1" parent="VzfCmB4Gi5n6BVjje-Hj-11">
          <mxGeometry width="36" height="22" as="geometry">
            <mxRectangle width="36" height="22" as="alternateBounds" />
          </mxGeometry>
        </mxCell>
        <mxCell id="VzfCmB4Gi5n6BVjje-Hj-13" value="subject" style="shape=partialRectangle;connectable=0;fillColor=none;top=0;left=0;bottom=0;right=0;align=left;spacingLeft=2;overflow=hidden;fontSize=11;" vertex="1" parent="VzfCmB4Gi5n6BVjje-Hj-11">
          <mxGeometry x="36" width="69" height="22" as="geometry">
            <mxRectangle width="69" height="22" as="alternateBounds" />
          </mxGeometry>
        </mxCell>
        <mxCell id="VzfCmB4Gi5n6BVjje-Hj-14" style="shape=tableRow;horizontal=0;startSize=0;swimlaneHead=0;swimlaneBody=0;fillColor=none;collapsible=0;dropTarget=0;points=[[0,0.5],[1,0.5]];portConstraint=eastwest;top=0;left=0;right=0;bottom=0;" vertex="1" parent="VzfCmB4Gi5n6BVjje-Hj-1">
          <mxGeometry y="113" width="105" height="22" as="geometry" />
        </mxCell>
        <mxCell id="VzfCmB4Gi5n6BVjje-Hj-15" value="String" style="shape=partialRectangle;connectable=0;fillColor=none;top=0;left=0;bottom=0;right=0;align=left;spacingLeft=2;overflow=hidden;fontSize=11;" vertex="1" parent="VzfCmB4Gi5n6BVjje-Hj-14">
          <mxGeometry width="36" height="22" as="geometry">
            <mxRectangle width="36" height="22" as="alternateBounds" />
          </mxGeometry>
        </mxCell>
        <mxCell id="VzfCmB4Gi5n6BVjje-Hj-16" value="body" style="shape=partialRectangle;connectable=0;fillColor=none;top=0;left=0;bottom=0;right=0;align=left;spacingLeft=2;overflow=hidden;fontSize=11;" vertex="1" parent="VzfCmB4Gi5n6BVjje-Hj-14">
          <mxGeometry x="36" width="69" height="22" as="geometry">
            <mxRectangle width="69" height="22" as="alternateBounds" />
          </mxGeometry>
        </mxCell>
        <mxCell id="VzfCmB4Gi5n6BVjje-Hj-17" value="USER" style="shape=table;startSize=75;container=1;collapsible=0;childLayout=tableLayout;fixedRows=1;rowLines=1;fontStyle=1;align=center;resizeLast=1;" vertex="1" parent="1">
          <mxGeometry x="22" y="254" width="100" height="75" as="geometry" />
        </mxCell>
        <mxCell id="VzfCmB4Gi5n6BVjje-Hj-18" value="sent by" style="curved=1;startArrow=ERmandOne;startSize=10;;endArrow=ERzeroToOne;endSize=10;;exitX=0.49915270124162947;exitY=1;entryX=0.5041103363037109;entryY=0;rounded=0;" edge="1" parent="1" source="VzfCmB4Gi5n6BVjje-Hj-1" target="VzfCmB4Gi5n6BVjje-Hj-17">
          <mxGeometry relative="1" as="geometry">
            <Array as="points" />
          </mxGeometry>
        </mxCell>
      </root>
    </mxGraphModel>
  </diagram>
</mxfile>
